# xmcd
#
# Track frame offsets: 
#        150
#        11970
#        31467
#        48512
#        66786
#        85088
#        103240
#        125182
#        143460
#        158332
#        168986
#        184070
#        207095
#        225338
#        237552
#        254033
#        266237
#        280335
#        295377
#        312467
#
# Disc length: 4355 seconds
#
# Revision: 0
# Processed by: cddbd v1.5.2PL0 Copyright (c) Steve Scherf et al.
# Submitted via: ExactAudioCopy v1.0b2
#
DISCID=2c110114
DTITLE=Various Artist - Daughters Of Alamo Disc 2
DYEAR=2009
DGENRE=Blues
TTITLE0=Candye Kane - Babylon Boogie
TTITLE1=Candye Kane - Catch An Honest Man
TTITLE2=Candye Kane - She Wore A Red Carnation
TTITLE3=Candye Kane - Tell Me A Lie
TTITLE4=Toni Price - Dean And Brandy
TTITLE5=Toni Price - Tumbleweed
TTITLE6=Toni Price - Bluebird
TTITLE7=Toni Price - Obviously Believers
TTITLE8=Marcia Ball, Angela Strehli, Lou Ann Barton - A Fool In Love
TTITLE9=Marcia Ball, Angela Strehli, Lou Ann Barton - Good Rockin' Bab
TTITLE9=y
TTITLE10=Marcia Ball, Angela Strehli, Lou Ann Barton - It Hurts To Be 
TTITLE10=In Love
TTITLE11=Marcia Ball, Angela Strehli, Lou Ann Barton - Love, Sweet Lov
TTITLE11=e
TTITLE12=Marcia Ball, Angela Strehli, Lou Ann Barton - Gonna Make It
TTITLE13=Marcia Ball, Angela Strehli, Lou Ann Barton - You Can If You 
TTITLE13=Think You Can
TTITLE14=Marcia Ball, Angela Strehli, Lou Ann Barton - Idolize You
TTITLE15=Marcia Ball, Angela Strehli, Lou Ann Barton - Dreams Come Tru
TTITLE15=e
TTITLE16=Marcia Ball, Angela Strehli, Lou Ann Barton - Bad Thing
TTITLE17=Marcia Ball, Angela Strehli, Lou Ann Barton - Turn The Lock O
TTITLE17=n Love
TTITLE18=Marcia Ball, Angela Strehli, Lou Ann Barton - Something's Got
TTITLE18=A Hold On Me
TTITLE19=Marcia Ball, Angela Strehli, Lou Ann Barton - Snake Dance
EXTD=
EXTT0=
EXTT1=
EXTT2=
EXTT3=
EXTT4=
EXTT5=
EXTT6=
EXTT7=
EXTT8=
EXTT9=
EXTT10=
EXTT11=
EXTT12=
EXTT13=
EXTT14=
EXTT15=
EXTT16=
EXTT17=
EXTT18=
EXTT19=
PLAYORDER=
